<?xml version="1.0" encoding="UTF-8" standalone="no"?>
<svg
   xmlns:dc="http://purl.org/dc/elements/1.1/"
   xmlns:cc="http://creativecommons.org/ns#"
   xmlns:rdf="http://www.w3.org/1999/02/22-rdf-syntax-ns#"
   xmlns:svg="http://www.w3.org/2000/svg"
   xmlns="http://www.w3.org/2000/svg"
   id="svg8"
   version="1.1"
   viewBox="0 0 160.01486 10.882154"
   height="10.882154mm"
   width="160.01486mm">
  <defs
     id="defs2" />
  <metadata
     id="metadata5">
    <rdf:RDF>
      <cc:Work
         rdf:about="">
        <dc:format>image/svg+xml</dc:format>
        <dc:type
           rdf:resource="http://purl.org/dc/dcmitype/StillImage" />
        <dc:title></dc:title>
      </cc:Work>
    </rdf:RDF>
  </metadata>
  <g
     transform="translate(-14.331972,-154.36376)"
     id="layer1">
    <g
       id="text817"
       style="font-style:normal;font-weight:normal;font-size:10.58333302px;line-height:1.25;font-family:sans-serif;letter-spacing:0px;word-spacing:0px;fill:#000000;fill-opacity:1;stroke:none;stroke-width:0.26458332"
       aria-label="b-konishi@eis.t.u-tokyo.ac.jp">
      <g
         transform="matrix(1.0624749,0,0,1.0624749,-26.150727,-6.9037201)"
         id="g907">
        <path
           d="m 42.293223,156.93688 q 0,-1.04903 -0.434082,-1.64331 -0.428914,-0.59945 -1.18339,-0.59945 -0.754476,0 -1.188558,0.59945 -0.428915,0.59428 -0.428915,1.64331 0,1.04903 0.428915,1.64848 0.434082,0.59428 1.188558,0.59428 0.754476,0 1.18339,-0.59428 0.434082,-0.59945 0.434082,-1.64848 z m -3.234945,-2.02055 q 0.299724,-0.51676 0.754476,-0.76481 0.45992,-0.25321 1.095541,-0.25321 1.054199,0 1.710489,0.83715 0.661459,0.83716 0.661459,2.20142 0,1.36426 -0.661459,2.20142 -0.65629,0.83715 -1.710489,0.83715 -0.635621,0 -1.095541,-0.24804 -0.454752,-0.25322 -0.754476,-0.76998 v 0.86816 h -0.956014 v -8.04085 h 0.956014 z"
           style="stroke-width:0.26458332"
           id="path819" />
        <path
           d="m 44.375783,156.5028 h 2.78536 v 0.84749 h -2.78536 z"
           style="stroke-width:0.26458332"
           id="path821" />
        <path
           d="m 48.639089,151.78474 h 0.956014 v 4.74906 l 2.837036,-2.49597 h 1.214396 l -3.06958,2.70785 3.198771,3.07991 h -1.240235 l -2.940388,-2.8267 v 2.8267 h -0.956014 z"
           style="stroke-width:0.26458332"
           id="path823" />
        <path
           d="m 56.669605,154.70446 q -0.764811,0 -1.209228,0.59944 -0.444418,0.59428 -0.444418,1.63298 0,1.0387 0.43925,1.63814 0.444417,0.59428 1.214396,0.59428 0.759644,0 1.204061,-0.59945 0.444417,-0.59944 0.444417,-1.63297 0,-1.02836 -0.444417,-1.62781 -0.444417,-0.60461 -1.204061,-0.60461 z m 0,-0.80615 q 1.240234,0 1.948202,0.80615 0.707967,0.80615 0.707967,2.23242 0,1.4211 -0.707967,2.23242 -0.707968,0.80615 -1.948202,0.80615 -1.245402,0 -1.953369,-0.80615 -0.702799,-0.81132 -0.702799,-2.23242 0,-1.42627 0.702799,-2.23242 0.707967,-0.80615 1.953369,-0.80615 z"
           style="stroke-width:0.26458332"
           id="path825" />
        <path
           d="m 65.712981,156.33227 v 3.49332 h -0.950846 v -3.46232 q 0,-0.82165 -0.320394,-1.2299 -0.320394,-0.40824 -0.961181,-0.40824 -0.769979,0 -1.214397,0.49092 -0.444417,0.49093 -0.444417,1.33842 v 3.27112 h -0.956014 v -5.78776 h 0.956014 v 0.89917 q 0.341065,-0.52193 0.800985,-0.78031 0.465088,-0.25838 1.069702,-0.25838 0.997355,0 1.508952,0.62011 0.511596,0.61495 0.511596,1.81385 z"
           style="stroke-width:0.26458332"
           id="path827" />
        <path
           d="m 67.609507,154.03783 h 0.950847 v 5.78776 h -0.950847 z m 0,-2.25309 h 0.950847 v 1.20406 h -0.950847 z"
           style="stroke-width:0.26458332"
           id="path829" />
        <path
           d="m 74.239592,154.20836 v 0.89917 q -0.403076,-0.2067 -0.837158,-0.31005 -0.434082,-0.10336 -0.89917,-0.10336 -0.707967,0 -1.064534,0.21704 -0.3514,0.21704 -0.3514,0.65113 0,0.33073 0.253214,0.52193 0.253215,0.18603 1.018026,0.35657 l 0.325562,0.0723 q 1.012858,0.21704 1.436604,0.61495 0.428915,0.39274 0.428915,1.10071 0,0.80615 -0.640788,1.27641 -0.63562,0.47025 -1.751831,0.47025 -0.465088,0 -0.971517,-0.093 -0.501261,-0.0879 -1.059367,-0.26872 v -0.98185 q 0.5271,0.27388 1.038696,0.41341 0.511597,0.13436 1.012859,0.13436 0.671793,0 1.033528,-0.22738 0.361735,-0.23254 0.361735,-0.65112 0,-0.38758 -0.26355,-0.59428 -0.258382,-0.20671 -1.142049,-0.39791 l -0.330729,-0.0775 q -0.883667,-0.18604 -1.276408,-0.56845 -0.392741,-0.38757 -0.392741,-1.05936 0,-0.81649 0.578776,-1.26091 0.578776,-0.44441 1.643311,-0.44441 0.527099,0 0.992187,0.0775 0.465088,0.0775 0.857829,0.23254 z"
           style="stroke-width:0.26458332"
           id="path831" />
        <path
           d="m 80.874845,156.33227 v 3.49332 h -0.950847 v -3.46232 q 0,-0.82165 -0.320394,-1.2299 -0.320393,-0.40824 -0.961181,-0.40824 -0.769979,0 -1.214396,0.49092 -0.444418,0.49093 -0.444418,1.33842 v 3.27112 h -0.956014 v -8.04085 h 0.956014 v 3.15226 q 0.341065,-0.52193 0.800985,-0.78031 0.465088,-0.25838 1.069702,-0.25838 0.997355,0 1.508952,0.62011 0.511597,0.61495 0.511597,1.81385 z"
           style="stroke-width:0.26458332"
           id="path833" />
        <path
           d="m 82.771372,154.03783 h 0.950847 v 5.78776 h -0.950847 z m 0,-2.25309 h 0.950847 v 1.20406 h -0.950847 z"
           style="stroke-width:0.26458332"
           id="path835" />
        <path
           d="m 88.652149,157.05057 q 0,0.73897 0.366903,1.16272 0.366902,0.41858 1.00769,0.41858 0.63562,0 0.997355,-0.42375 0.366903,-0.42375 0.366903,-1.15755 0,-0.72347 -0.37207,-1.14722 -0.372071,-0.42891 -1.002523,-0.42891 -0.625285,0 -0.997355,0.42374 -0.366903,0.42375 -0.366903,1.15239 z m 2.816366,1.54512 q -0.310059,0.39791 -0.713135,0.58911 -0.397909,0.18604 -0.930176,0.18604 -0.888835,0 -1.44694,-0.64079 -0.552938,-0.64595 -0.552938,-1.67948 0,-1.03353 0.558106,-1.67949 0.558105,-0.64595 1.441772,-0.64595 0.532267,0 0.935343,0.19637 0.403077,0.1912 0.707968,0.58394 v -0.67696 h 0.738973 v 3.80339 q 0.754475,-0.11369 1.178222,-0.6873 0.428915,-0.57878 0.428915,-1.49345 0,-0.55294 -0.165365,-1.0387 -0.160197,-0.48575 -0.490926,-0.89917 -0.537435,-0.67696 -1.312581,-1.03352 -0.769979,-0.36174 -1.679484,-0.36174 -0.635621,0 -1.219564,0.17053 -0.583944,0.16537 -1.080038,0.4961 -0.81132,0.5271 -1.27124,1.38493 -0.454752,0.85266 -0.454752,1.85001 0,0.82166 0.294555,1.53996 0.299724,0.7183 0.862997,1.26607 0.542602,0.53744 1.255737,0.81649 0.713135,0.28422 1.524455,0.28422 0.666626,0 1.307413,-0.22738 0.645956,-0.2222 1.183391,-0.64078 l 0.465087,0.5736 q -0.645955,0.50127 -1.410766,0.76482 -0.759644,0.26871 -1.545125,0.26871 -0.956014,0 -1.803508,-0.34106 -0.847493,-0.3359 -1.508952,-0.98185 -0.661458,-0.64596 -1.00769,-1.49345 -0.346232,-0.85266 -0.346232,-1.82935 0,-0.94051 0.3514,-1.79317 0.351399,-0.85266 1.002522,-1.49862 0.666626,-0.65629 1.539958,-1.00252 0.873332,-0.3514 1.850016,-0.3514 1.095541,0 2.030884,0.44959 0.940511,0.44958 1.576131,1.2764 0.387573,0.50643 0.589111,1.10071 0.206706,0.59428 0.206706,1.2299 0,1.35909 -0.821655,2.14457 -0.821655,0.78548 -2.268595,0.81649 z"
           style="stroke-width:0.26458332"
           id="path837" />
        <path
           d="m 101.24569,156.694 v 0.46509 h -4.371822 q 0.06201,0.98185 0.589112,1.49861 0.532267,0.5116 1.477945,0.5116 0.547771,0 1.059365,-0.13436 0.51677,-0.13436 1.0232,-0.40307 v 0.89917 q -0.5116,0.21704 -1.049036,0.33073 -0.537435,0.11368 -1.090373,0.11368 -1.384928,0 -2.196248,-0.80615 -0.806152,-0.80615 -0.806152,-2.18074 0,-1.42111 0.764811,-2.2531 0.769979,-0.83715 2.072225,-0.83715 1.167887,0 1.844853,0.75447 0.68212,0.74931 0.68212,2.04122 z m -0.95084,-0.27905 q -0.0103,-0.78032 -0.439252,-1.2454 -0.423746,-0.46509 -1.126546,-0.46509 -0.795817,0 -1.276408,0.44958 -0.475423,0.44959 -0.54777,1.26608 z"
           style="stroke-width:0.26458332"
           id="path839" />
        <path
           d="m 102.80632,154.03783 h 0.95085 v 5.78776 h -0.95085 z m 0,-2.25309 h 0.95085 v 1.20406 h -0.95085 z"
           style="stroke-width:0.26458332"
           id="path841" />
        <path
           d="m 109.43641,154.20836 v 0.89917 q -0.40307,-0.2067 -0.83716,-0.31005 -0.43408,-0.10336 -0.89917,-0.10336 -0.70796,0 -1.06453,0.21704 -0.3514,0.21704 -0.3514,0.65113 0,0.33073 0.25321,0.52193 0.25322,0.18603 1.01803,0.35657 l 0.32556,0.0723 q 1.01286,0.21704 1.43661,0.61495 0.42891,0.39274 0.42891,1.10071 0,0.80615 -0.64079,1.27641 -0.63562,0.47025 -1.75183,0.47025 -0.46509,0 -0.97152,-0.093 -0.50126,-0.0879 -1.05936,-0.26872 v -0.98185 q 0.5271,0.27388 1.03869,0.41341 0.5116,0.13436 1.01286,0.13436 0.6718,0 1.03353,-0.22738 0.36174,-0.23254 0.36174,-0.65112 0,-0.38758 -0.26355,-0.59428 -0.25839,-0.20671 -1.14205,-0.39791 l -0.33073,-0.0775 q -0.88367,-0.18604 -1.27641,-0.56845 -0.39274,-0.38757 -0.39274,-1.05936 0,-0.81649 0.57877,-1.26091 0.57878,-0.44441 1.64332,-0.44441 0.52709,0 0.99218,0.0775 0.46509,0.0775 0.85783,0.23254 z"
           style="stroke-width:0.26458332"
           id="path843" />
        <path
           d="m 111.39494,158.51301 h 1.09038 v 1.31258 h -1.09038 z"
           style="stroke-width:0.26458332"
           id="path845" />
        <path
           d="m 115.56523,152.39452 v 1.64331 h 1.95854 v 0.73897 h -1.95854 v 3.14193 q 0,0.70797 0.1912,0.90951 0.19637,0.20154 0.79065,0.20154 h 0.97669 v 0.79581 h -0.97669 q -1.1007,0 -1.51928,-0.40824 -0.41858,-0.41341 -0.41858,-1.49862 v -3.14193 h -0.69763 v -0.73897 h 0.69763 v -1.64331 z"
           style="stroke-width:0.26458332"
           id="path847" />
        <path
           d="m 118.9087,158.51301 h 1.09037 v 1.31258 h -1.09037 z"
           style="stroke-width:0.26458332"
           id="path849" />
        <path
           d="m 122.04029,157.54149 v -3.50366 h 0.95085 v 3.46749 q 0,0.82166 0.32039,1.23507 0.32039,0.40824 0.96118,0.40824 0.76998,0 1.2144,-0.49093 0.44958,-0.49092 0.44958,-1.33841 v -3.28146 h 0.95085 v 5.78776 h -0.95085 v -0.88883 q -0.34623,0.5271 -0.80615,0.78548 -0.45475,0.25321 -1.05937,0.25321 -0.99735,0 -1.51411,-0.62011 -0.51677,-0.62012 -0.51677,-1.81385 z m 2.39262,-3.64318 z"
           style="stroke-width:0.26458332"
           id="path851" />
        <path
           d="m 128.36549,156.5028 h 2.78536 v 0.84749 h -2.78536 z"
           style="stroke-width:0.26458332"
           id="path853" />
        <path
           d="m 133.60548,152.39452 v 1.64331 h 1.95853 v 0.73897 h -1.95853 v 3.14193 q 0,0.70797 0.1912,0.90951 0.19637,0.20154 0.79065,0.20154 h 0.97668 v 0.79581 h -0.97668 q -1.10071,0 -1.51929,-0.40824 -0.41858,-0.41341 -0.41858,-1.49862 v -3.14193 h -0.69763 v -0.73897 h 0.69763 v -1.64331 z"
           style="stroke-width:0.26458332"
           id="path855" />
        <path
           d="m 139.05734,154.70446 q -0.76481,0 -1.20923,0.59944 -0.44441,0.59428 -0.44441,1.63298 0,1.0387 0.43925,1.63814 0.44441,0.59428 1.21439,0.59428 0.75965,0 1.20406,-0.59945 0.44442,-0.59944 0.44442,-1.63297 0,-1.02836 -0.44442,-1.62781 -0.44441,-0.60461 -1.20406,-0.60461 z m 0,-0.80615 q 1.24024,0 1.9482,0.80615 0.70797,0.80615 0.70797,2.23242 0,1.4211 -0.70797,2.23242 -0.70796,0.80615 -1.9482,0.80615 -1.2454,0 -1.95337,-0.80615 -0.7028,-0.81132 -0.7028,-2.23242 0,-1.42627 0.7028,-2.23242 0.70797,-0.80615 1.95337,-0.80615 z"
           style="stroke-width:0.26458332"
           id="path857" />
        <path
           d="m 143.25346,151.78474 h 0.95602 v 4.74906 l 2.83703,-2.49597 h 1.2144 l -3.06958,2.70785 3.19877,3.07991 h -1.24023 l -2.94039,-2.8267 v 2.8267 h -0.95602 z"
           style="stroke-width:0.26458332"
           id="path859" />
        <path
           d="m 151.44935,160.36303 q -0.40308,1.03353 -0.78549,1.34875 -0.3824,0.31523 -1.02319,0.31523 h -0.75964 v -0.79582 h 0.5581 q 0.39274,0 0.60978,-0.18603 0.21705,-0.18604 0.4806,-0.8785 l 0.17053,-0.43409 -2.34094,-5.69474 h 1.00769 l 1.80867,4.52686 1.80868,-4.52686 h 1.00769 z"
           style="stroke-width:0.26458332"
           id="path861" />
        <path
           d="m 157.54716,154.70446 q -0.76481,0 -1.20922,0.59944 -0.44442,0.59428 -0.44442,1.63298 0,1.0387 0.43925,1.63814 0.44442,0.59428 1.21439,0.59428 0.75965,0 1.20407,-0.59945 0.44441,-0.59944 0.44441,-1.63297 0,-1.02836 -0.44441,-1.62781 -0.44442,-0.60461 -1.20407,-0.60461 z m 0,-0.80615 q 1.24024,0 1.94821,0.80615 0.70796,0.80615 0.70796,2.23242 0,1.4211 -0.70796,2.23242 -0.70797,0.80615 -1.94821,0.80615 -1.2454,0 -1.95336,-0.80615 -0.7028,-0.81132 -0.7028,-2.23242 0,-1.42627 0.7028,-2.23242 0.70796,-0.80615 1.95336,-0.80615 z"
           style="stroke-width:0.26458332"
           id="path863" />
        <path
           d="m 161.72779,158.51301 h 1.09037 v 1.31258 h -1.09037 z"
           style="stroke-width:0.26458332"
           id="path865" />
        <path
           d="m 167.5879,156.91621 q -1.15239,0 -1.5968,0.26355 -0.44442,0.26355 -0.44442,0.89917 0,0.50643 0.33073,0.80615 0.3359,0.29456 0.9095,0.29456 0.79065,0 1.26608,-0.55811 0.48059,-0.56327 0.48059,-1.49345 v -0.21187 z m 1.89652,-0.39274 v 3.30212 h -0.95084 v -0.8785 q -0.32556,0.5271 -0.81132,0.78032 -0.48576,0.24804 -1.18856,0.24804 -0.88884,0 -1.41594,-0.49609 -0.52193,-0.50126 -0.52193,-1.33842 0,-0.97668 0.65113,-1.47278 0.65629,-0.49609 1.95336,-0.49609 h 1.33326 v -0.093 q 0,-0.65629 -0.43409,-1.01286 -0.42891,-0.36173 -1.20922,-0.36173 -0.4961,0 -0.96635,0.11885 -0.47026,0.11886 -0.90434,0.35657 v -0.8785 q 0.52193,-0.20154 1.01286,-0.29972 0.49092,-0.10335 0.95601,-0.10335 1.25574,0 1.87586,0.65112 0.62011,0.65112 0.62011,1.97404 z"
           style="stroke-width:0.26458332"
           id="path867" />
        <path
           d="m 175.60808,154.26004 v 0.88884 q -0.40308,-0.22221 -0.81132,-0.33073 -0.40308,-0.11369 -0.81649,-0.11369 -0.92501,0 -1.4366,0.58911 -0.5116,0.58394 -0.5116,1.64331 0,1.05937 0.5116,1.64848 0.51159,0.58394 1.4366,0.58394 0.41341,0 0.81649,-0.10852 0.40824,-0.11369 0.81132,-0.3359 v 0.8785 q -0.39791,0.18604 -0.82683,0.27906 -0.42374,0.093 -0.90433,0.093 -1.30742,0 -2.0774,-0.82165 -0.76997,-0.82166 -0.76997,-2.21692 0,-1.41593 0.77514,-2.22725 0.78032,-0.81132 2.13424,-0.81132 0.43925,0 0.85783,0.093 0.41858,0.0879 0.81132,0.26872 z"
           style="stroke-width:0.26458332"
           id="path869" />
        <path
           d="m 177.39609,158.51301 h 1.09037 v 1.31258 h -1.09037 z"
           style="stroke-width:0.26458332"
           id="path871" />
        <path
           d="m 180.62586,154.03783 h 0.95085 v 5.89111 q 0,1.10588 -0.42375,1.60197 -0.41857,0.4961 -1.35392,0.4961 h -0.36173 v -0.80615 h 0.25321 q 0.5426,0 0.73897,-0.25322 0.19637,-0.24805 0.19637,-1.0387 z m 0,-2.25309 h 0.95085 v 1.20406 h -0.95085 z"
           style="stroke-width:0.26458332"
           id="path873" />
        <path
           d="m 184.48609,158.95743 v 3.06958 h -0.95601 v -7.98918 h 0.95601 v 0.8785 q 0.29972,-0.51676 0.75447,-0.76481 0.45993,-0.25321 1.09555,-0.25321 1.05419,0 1.71049,0.83715 0.66145,0.83716 0.66145,2.20142 0,1.36426 -0.66145,2.20142 -0.6563,0.83715 -1.71049,0.83715 -0.63562,0 -1.09555,-0.24804 -0.45475,-0.25322 -0.75447,-0.76998 z m 3.23494,-2.02055 q 0,-1.04903 -0.43408,-1.64331 -0.42891,-0.59945 -1.18339,-0.59945 -0.75447,0 -1.18856,0.59945 -0.42891,0.59428 -0.42891,1.64331 0,1.04903 0.42891,1.64848 0.43409,0.59428 1.18856,0.59428 0.75448,0 1.18339,-0.59428 0.43408,-0.59945 0.43408,-1.64848 z"
           style="stroke-width:0.26458332"
           id="path875" />
      </g>
    </g>
  </g>
</svg>
